<?xml version="1.0" encoding="UTF-8" standalone="no"?>
<!-- Created with Inkscape (http://www.inkscape.org/) -->

<svg
   width="1200"
   height="1200"
   viewBox="0 0 400 400"
   version="1.1"
   id="svg1"
   xml:space="preserve"
   sodipodi:docname="paper-airlines-roundle-filled.svg"
   inkscape:version="1.3.2 (091e20e, 2023-11-25, custom)"
   xmlns:inkscape="http://www.inkscape.org/namespaces/inkscape"
   xmlns:sodipodi="http://sodipodi.sourceforge.net/DTD/sodipodi-0.dtd"
   xmlns="http://www.w3.org/2000/svg"
   xmlns:svg="http://www.w3.org/2000/svg"><sodipodi:namedview
     id="namedview1"
     pagecolor="#505050"
     bordercolor="#ffffff"
     borderopacity="1"
     inkscape:showpageshadow="0"
     inkscape:pageopacity="0"
     inkscape:pagecheckerboard="1"
     inkscape:deskcolor="#505050"
     inkscape:zoom="0.70795531"
     inkscape:cx="815.0232"
     inkscape:cy="665.29623"
     inkscape:window-width="2560"
     inkscape:window-height="1476"
     inkscape:window-x="-12"
     inkscape:window-y="-12"
     inkscape:window-maximized="1"
     inkscape:current-layer="svg1" /><defs
     id="defs1"><inkscape:path-effect
       effect="fillet_chamfer"
       id="path-effect1"
       is_visible="true"
       lpeversion="1"
       nodesatellites_param="F,0,0,1,0,0,0,1 @ F,0,0,1,0,0,0,1 @ F,0,0,1,0,0,0,1 @ F,0,0,1,0,0,0,1 @ F,0,0,1,0,0,0,1 @ F,0,0,1,0,0,0,1 @ F,0,0,1,0,0,0,1 @ F,0,0,1,0,0,0,1 @ F,0,0,1,0,0,0,1 @ F,0,0,1,0,0,0,1 @ F,0,0,1,0,0,0,1 @ F,0,0,1,0,0,0,1 @ F,0,0,1,0,0,0,1 @ F,0,0,1,0,0,0,1 @ F,0,0,1,0,0,0,1 @ F,0,0,1,0,0,0,1 @ F,0,0,1,0,0,0,1 @ F,0,0,1,0,0,0,1 @ F,0,0,1,0,0,0,1 @ F,0,0,1,0,0,0,1 @ F,0,0,1,0,0,0,1 @ F,0,0,1,0,0,0,1 @ F,0,0,1,0,0,0,1 @ F,0,0,1,0,0,0,1 @ F,0,0,1,0,0,0,1 @ F,0,0,1,0,0,0,1 @ F,0,0,1,0,0,0,1 @ F,0,0,1,0,0,0,1 @ F,0,0,1,0,0,0,1 @ F,0,0,1,0,0,0,1 @ F,0,0,1,0,0,0,1 @ F,0,0,1,0,0,0,1 @ F,0,0,1,0,0,0,1 @ F,0,0,1,0,0,0,1 @ F,0,0,1,0,0,0,1 @ F,0,0,1,0,0,0,1 @ F,0,0,1,0,0,0,1 @ F,0,0,1,0,0,0,1 @ F,0,0,1,0,0,0,1 @ F,0,0,1,0,0,0,1 @ F,0,0,1,0,0,0,1 @ F,0,0,1,0,0,0,1 @ F,0,0,1,0,0,0,1 @ F,0,0,1,0,0,0,1 @ F,0,0,1,0,0,0,1 @ F,0,0,1,0,12.326059,0,1 @ F,0,0,1,0,0,0,1 @ F,0,0,1,0,0,0,1 @ F,0,0,1,0,0,0,1 @ F,0,0,1,0,0,0,1 @ F,0,0,1,0,0,0,1 @ F,0,0,1,0,0,0,1 @ F,0,0,1,0,0,0,1 @ F,0,0,1,0,0,0,1 @ F,0,0,1,0,0,0,1 @ F,0,0,1,0,0,0,1 @ F,0,0,1,0,0,0,1 @ F,0,0,1,0,0,0,1 @ F,0,0,1,0,0,0,1 @ F,0,0,1,0,0,0,1 @ F,0,0,1,0,0,0,1 @ F,0,0,1,0,0,0,1 @ F,0,0,1,0,0,0,1 @ F,0,0,1,0,0,0,1 @ F,0,0,1,0,0,0,1 @ F,0,0,1,0,0,0,1 @ F,0,0,1,0,0,0,1 @ F,0,0,1,0,0,0,1 @ F,0,0,1,0,0,0,1 @ F,0,0,1,0,0,0,1 @ F,0,0,1,0,0,0,1 @ F,0,0,1,0,0,0,1 @ F,0,0,1,0,0,0,1 @ F,0,0,1,0,0,0,1 @ F,0,0,1,0,0,0,1 @ F,0,0,1,0,0,0,1 @ F,0,0,1,0,0,0,1"
       radius="0"
       unit="px"
       method="auto"
       mode="F"
       chamfer_steps="1"
       flexible="false"
       use_knot_distance="true"
       apply_no_radius="true"
       apply_with_radius="true"
       only_selected="false"
       hide_knots="false" /><linearGradient
       id="swatch18"><stop
         style="stop-color:#6496fa;stop-opacity:1;"
         offset="0"
         id="stop18" /></linearGradient></defs><g
     id="layer1"><g
       id="layer1-5"
       transform="matrix(1.2598425,0,0,1.2598425,-2.3354581,-47.724229)"
       style="fill:#6496fa;fill-opacity:1;stroke:#ffffff;stroke-opacity:1"><circle
         style="display:inline;fill:#6496fa;stroke:#ffffff;stroke-width:13.2293;stroke-dasharray:none;stroke-opacity:1;fill-opacity:1"
         id="path1"
         cy="-198.52969"
         cx="158.25081"
         r="152.11064"
         transform="rotate(102.2)" /><path
         id="rect1"
         style="display:inline;fill:#ffffff;fill-opacity:1;stroke:#ffffff;stroke-width:7.79612;stroke-dasharray:none;stroke-opacity:1"
         d="m -158.4756,0.00671794 c 0.0926,0.00462462 0.18101,0.03084306 0.27286,0.04030761 0.14037,0.01500151 0.27914,0.03594245 0.41961,0.06252848 0.22496,0.0417239 0.44335,0.0978606 0.65991,0.16794841 0.0595,0.0193535 0.12003,0.023897 0.17931,0.0454753 0.0498,0.0181208 0.0911,0.0477511 0.14005,0.0671794 0.22356,0.0885381 0.43694,0.19350346 0.64647,0.31160888 0.10077,0.0566891 0.20075,0.11217873 0.29662,0.17466634 0.18428,0.120331 0.35633,0.25520544 0.52503,0.39842534 0.0991,0.084052 0.19788,0.166311 0.28991,0.2568318 0.14238,0.1401719 0.27165,0.29184 0.39842,0.4490682 0.0941,0.1164423 0.18623,0.2319848 0.26976,0.3555339 0.10047,0.1489135 0.18883,0.3055938 0.27491,0.4666381 0.082,0.1530745 0.1582,0.306785 0.2248,0.467155 0.031,0.074572 0.076,0.1388129 0.10387,0.2154907 L -55.347525,273.90989 c 0.257585,0.67332 0.378791,1.39748 0.344682,2.1301 -0.0015,0.0353 -0.007,0.0697 -0.0093,0.10491 -0.01987,0.29832 -0.06058,0.59705 -0.132809,0.894 -0.0124,0.0516 -0.03051,0.10078 -0.04444,0.15193 -0.06858,0.24941 -0.155079,0.49678 -0.262517,0.74052 -0.03126,0.071 -0.06383,0.14021 -0.09819,0.20981 -0.116242,0.23572 -0.248458,0.45789 -0.393257,0.66817 -0.03218,0.0465 -0.05983,0.0951 -0.09354,0.14056 -0.180947,0.24573 -0.383395,0.46882 -0.59893,0.67541 -0.02484,0.0237 -0.047,0.0491 -0.07235,0.0724 -0.248005,0.22864 -0.515716,0.43098 -0.798917,0.60617 -0.0026,0.002 -0.0052,0.003 -0.0078,0.005 -0.610803,0.37639 -1.292192,0.62492 -2.001945,0.72967 -0.0055,8.3e-4 -0.01101,7.4e-4 -0.01654,0.002 -0.328005,0.0474 -0.661002,0.0647 -0.996322,0.0491 -0.03378,-10e-4 -0.06657,-0.007 -0.100252,-0.009 -0.299221,-0.0197 -0.599234,-0.0605 -0.897103,-0.13281 -0.05183,-0.0125 -0.101079,-0.031 -0.152445,-0.045 -0.253028,-0.0695 -0.504199,-0.15664 -0.751376,-0.26613 -0.04643,-0.0206 -0.09371,-0.0376 -0.139526,-0.0594 l -62.303168,-29.05249 c -2.65692,-1.23894 -3.79848,-4.37522 -2.55954,-7.03213 1.23894,-2.65691 4.37522,-3.79847 7.03213,-2.55953 l 34.16295,15.93063 c 6.127844,2.85749 12.651508,-3.1203 10.339007,-9.47389 L -151.64822,40.269017 c -2.41323,-6.630323 -11.79037,-6.630334 -14.20361,-1.8e-5 L -241.61288,248.4208 c -2.31253,6.3536 4.21113,12.33143 10.339,9.47394 l 56.06102,-26.14173 a 19.34805,19.34805 122.49998 0 0 11.1712,-17.53528 v -94.53305 c 0,-4.39737 2.36008,-7.9375 5.29166,-7.9375 2.93158,0 5.29167,3.54013 5.29167,7.9375 v 153.47435 c 0,4.39737 -2.36009,7.9375 -5.29167,7.9375 -2.93158,0 -5.29166,-3.54013 -5.29166,-7.9375 v -21.97051 c 0,-6.04296 -6.27568,-10.04102 -11.75247,-7.48716 l -79.073,36.87221 c -0.53228,0.24821 -1.08253,0.3797 -1.63245,0.45165 -0.14983,0.0203 -0.29598,0.0573 -0.44804,0.0646 -2.10653,0.10073 -4.13718,-1.02557 -5.06791,-3.02152 -0.27739,-0.59486 -0.41572,-1.215 -0.4594,-1.83348 -0.005,-0.0601 -0.0199,-0.11789 -0.0227,-0.17828 -0.004,-0.12208 0.0134,-0.24174 0.0176,-0.36328 0.0124,-0.56608 0.0927,-1.13863 0.29766,-1.70171 L -163.72592,3.4855753 c 0.0279,-0.076678 0.0729,-0.1409189 0.10387,-0.2154907 0.0666,-0.16037 0.14276,-0.3140805 0.22479,-0.467155 0.0861,-0.1610443 0.17445,-0.3177246 0.27492,-0.4666381 0.0835,-0.1235491 0.1757,-0.2390916 0.26975,-0.3555339 0.12695,-0.157444 0.25635,-0.3092447 0.39894,-0.4495849 0.0915,-0.089929 0.18936,-0.1717378 0.28784,-0.2552816 0.16926,-0.1437752 0.34164,-0.27924886 0.52658,-0.39997559 0.0955,-0.0622154 0.19525,-0.11716753 0.29559,-0.17363281 0.21019,-0.11851738 0.42422,-0.22388568 0.64854,-0.31264241 0.0485,-0.0192653 0.0896,-0.0486844 0.13901,-0.0666626 0.0588,-0.0214129 0.11871,-0.0262532 0.17777,-0.0454753 0.21685,-0.0702277 0.43565,-0.12616491 0.66094,-0.16794841 0.1405,-0.02659463 0.27921,-0.04752361 0.41961,-0.06252848 0.18186,-0.01874058 0.3632,-0.0272647 0.54777,-0.02687174 0.0912,-1.8522e-4 0.1838,-0.01795989 0.2744,-0.01343582 z"
         transform="matrix(-0.2386735,-0.74338097,-0.84268963,0.27055804,252.53339,36.573699)" /></g></g></svg>
